HIERARCHY
ROOT Hips
{
 OFFSET 0.000000 0.000000 0.000000
 CHANNELS 6 Xposition Yposition Zposition Yrotation Xrotation Zrotation
 JOINT Chest
 {
  OFFSET 0.000000 9.585900 0.002600
  CHANNELS 3 Yrotation Xrotation Zrotation
  JOINT Chest2
  {
   OFFSET 0.000000 9.601200 -0.005300
   CHANNELS 3 Yrotation Xrotation Zrotation
   JOINT Chest3
   {
    OFFSET 0.000000 9.561800 0.000000
    CHANNELS 3 Yrotation Xrotation Zrotation
    JOINT Chest4
    {
     OFFSET 0.000000 9.552100 0.000000
     CHANNELS 3 Yrotation Xrotation Zrotation
     JOINT Neck
     {
      OFFSET 0.000000 14.453000 0.000000
      CHANNELS 3 Yrotation Xrotation Zrotation
      JOINT Head
      {
       OFFSET 0.000000 8.936500 -0.011300
       CHANNELS 3 Yrotation Xrotation Zrotation
       End Site
       {
        OFFSET 0.000000 17.073600 -0.006000
       }
      }
     }
     JOINT RightCollar
     {
      OFFSET -2.921100 9.558500 0.000000
      CHANNELS 3 Yrotation Xrotation Zrotation
      JOINT RightShoulder
      {
       OFFSET -13.519700 0.000000 0.000000
       CHANNELS 3 Yrotation Xrotation Zrotation
       JOINT RightElbow
       {
        OFFSET 0.000000 -29.696600 0.000000
        CHANNELS 3 Yrotation Xrotation Zrotation
        JOINT RightWrist
        {
         OFFSET 0.000000 -24.004700 0.000000
         CHANNELS 3 Yrotation Xrotation Zrotation
         End Site
         {
          OFFSET 0.000000 -17.728500 0.000000
         }
        }
       }
      }
     }
     JOINT LeftCollar
     {
      OFFSET 2.921100 9.558500 0.000000
      CHANNELS 3 Yrotation Xrotation Zrotation
      JOINT LeftShoulder
      {
       OFFSET 13.519700 0.000000 0.000000
       CHANNELS 3 Yrotation Xrotation Zrotation
       JOINT LeftElbow
       {
        OFFSET 0.000000 -29.696600 0.000000
        CHANNELS 3 Yrotation Xrotation Zrotation
        JOINT LeftWrist
        {
         OFFSET 0.000000 -24.004700 0.000000
         CHANNELS 3 Yrotation Xrotation Zrotation
         End Site
         {
          OFFSET 0.000000 -17.728500 0.000000
         }
        }
       }
      }
     }
    }
   }
  }
 }
 JOINT RightHip
 {
  OFFSET -7.771700 -0.012900 -0.001300
  CHANNELS 3 Yrotation Xrotation Zrotation
  JOINT RightKnee
  {
   OFFSET 0.000000 -40.869800 0.001200
   CHANNELS 3 Yrotation Xrotation Zrotation
   JOINT RightAnkle
   {
    OFFSET 0.000000 -39.717900 0.002100
    CHANNELS 3 Yrotation Xrotation Zrotation
    JOINT RightToe
    {
     OFFSET 0.000000 -4.965400 11.033500
     CHANNELS 3 Yrotation Xrotation Zrotation
     End Site
     {
      OFFSET 0.000000 -1.423100 5.872300
     }
    }
   }
  }
 }
 JOINT LeftHip
 {
  OFFSET 7.771700 -0.012900 -0.001300
  CHANNELS 3 Yrotation Xrotation Zrotation
  JOINT LeftKnee
  {
   OFFSET 0.000000 -40.869800 0.001200
   CHANNELS 3 Yrotation Xrotation Zrotation
   JOINT LeftAnkle
   {
    OFFSET 0.000000 -39.717900 0.002100
    CHANNELS 3 Yrotation Xrotation Zrotation
    JOINT LeftToe
    {
     OFFSET 0.000000 -4.965400 11.033500
     CHANNELS 3 Yrotation Xrotation Zrotation
     End Site
     {
      OFFSET 0.000000 -1.423100 5.872300
     }
    }
   }
  }
 }
}
MOTION
Frames: 16
Frame Time: 0.008333
0.000000 85.388000 0.000000 0.000000 -5.767877 0.000000 0.000000 11.653817 0.000000 0.000000 -5.885947 0.000000 0.000000 -0.000000 0.000000 0.000000 -0.000000 0.000000 0.000000 12.528835 0.000000 0.000000 0.711642 0.000000 0.000000 -0.000000 0.000000 0.000000 0.000000 -90.000000 0.000000 -2.309062 0.000000 0.000000 2.309062 0.000000 0.000000 -0.000000 0.000000 0.000000 -0.000000 90.000000 0.000000 -2.309062 0.000000 0.000000 2.309062 0.000000 0.000000 8.520406 0.000000 0.000000 1.905762 0.000000 -0.000000 -4.658285 0.000000 0.000000 -0.000000 0.000000 0.000000 8.520406 0.000000 0.000000 1.905762 0.000000 -0.000000 -4.658285 0.000000 0.000000 -0.000000 0.000000
-179.809134 49.192041 13.257604 175.451681 -34.372763 -5.213300 1.290608 19.767697 3.941983 0.092286 2.458905 0.423008 0.157509 4.030835 0.695063 1.151557 17.054891 3.128090 11.350595 19.315103 -1.687674 21.283800 1.131576 -6.463178 -3.347496 -2.259201 -1.636749 3.734454 -11.337520 -15.331920 -40.757659 -64.500410 87.851346 8.437731 7.928510 -16.188359 -6.466457 -6.591957 4.435989 -13.924887 -37.634842 46.133843 -153.052434 -63.723921 131.337676 -0.321417 1.743603 -4.713555 -0.441771 -50.086431 -2.891790 -148.120489 80.444743 -136.404109 -30.221516 -3.595813 -1.778091 -0.260296 -10.733301 2.766863 -16.681287 -51.622278 22.129701 -74.499019 66.141986 -79.118564 30.719573 7.976857 14.107507 -0.045798 -0.315463 -0.021140
-179.812782 49.194850 13.260363 175.480787 -34.355953 -5.228432 1.274978 19.760320 3.946394 0.101720 2.467184 0.426296 0.212315 4.087303 0.715010 1.116394 17.022731 3.127015 11.367275 19.329806 -1.670675 21.261822 1.134211 -6.448334 -3.382569 -2.299987 -1.635472 3.758162 -11.390297 -15.347093 -40.829362 -64.656137 87.890675 8.477147 7.899608 -16.180063 -6.596564 -6.632239 4.473087 -14.029099 -37.632462 46.359713 -153.242769 -63.065117 131.615192 -0.290989 1.422464 -4.747538 -0.443812 -50.104302 -2.910685 -148.146362 80.448458 -136.425132 -30.217027 -3.546308 -1.788173 -0.261616 -10.774102 2.779672 -16.700066 -51.645320 22.113576 -74.503912 66.150236 -79.110401 30.724929 7.986007 14.106965 -0.051412 -0.321696 -0.022337
-179.820269 49.197601 13.263834 175.498589 -34.333638 -5.216802 1.286987 19.771976 3.944023 0.102400 2.468733 0.427788 0.217334 4.091960 0.721154 1.126488 17.025977 3.138502 11.333931 19.345029 -1.666073 21.198119 1.156283 -6.428100 -3.414845 -2.329625 -1.621574 3.752460 -11.442918 -15.367491 -40.901430 -64.817113 87.933592 8.519449 7.866073 -16.173526 -6.735551 -6.673273 4.504516 -14.156933 -37.612647 46.612747 -153.258626 -62.344688 131.759431 -0.253868 1.076124 -4.704563 -0.337378 -50.133621 -3.012163 -148.198603 80.442626 -136.428702 -30.221130 -3.494516 -1.798191 -0.255673 -10.813991 2.796164 -16.674225 -51.692384 22.028809 -74.516469 66.183734 -79.093096 30.772128 8.016511 14.125993 -0.089972 -0.352771 -0.040318
-179.827072 49.199769 13.269512 175.526924 -34.296968 -5.216609 1.293853 19.771108 3.952512 0.142853 2.513059 0.445586 0.160414 4.032531 0.701470 1.133399 17.027452 3.144907 11.297614 19.393316 -1.654825 21.062765 1.187482 -6.405024 -3.405924 -2.327793 -1.600508 3.712412 -11.482971 -15.386573 -40.991074 -64.975475 87.992373 8.561160 7.828562 -16.173650 -6.807744 -6.693838 4.518110 -14.370950 -37.579485 46.914904 -153.126706 -61.568543 131.785203 -0.214967 0.719911 -4.542105 -0.302786 -50.170641 -3.062716 -148.204934 80.448899 -136.427055 -30.223585 -3.454690 -1.793046 -0.254290 -10.836066 2.800308 -16.683479 -51.738484 21.991350 -74.502650 66.194301 -79.062627 30.780234 8.033813 14.128173 -0.103441 -0.364018 -0.043458
-179.832054 49.202701 13.275206 175.532767 -34.264090 -5.212948 1.356571 19.808375 3.994500 0.119361 2.485365 0.437578 0.139279 4.007725 0.694309 1.143226 17.028524 3.152512 11.220890 19.451035 -1.645582 20.848235 1.220469 -6.376650 -3.419079 -2.342048 -1.601680 3.651632 -11.457868 -15.353046 -41.104729 -65.162623 88.090730 8.595406 7.787585 -16.188826 -6.950535 -6.708666 4.546226 -14.544951 -37.542526 47.247117 -152.898254 -60.756711 131.735684 -0.180152 0.369725 -4.240068 -0.287571 -50.205893 -3.078336 -148.245909 80.471894 -136.480523 -30.231152 -3.405992 -1.783847 -0.286897 -10.859105 2.804648 -16.689556 -51.774511 21.982392 -74.494783 66.201861 -79.048147 30.769228 8.033985 14.127934 -0.095221 -0.357431 -0.045156
-179.837958 49.203769 13.283642 175.551796 -34.208580 -5.208848 1.382533 19.810076 4.015157 0.111314 2.476481 0.435843 0.182057 4.049307 0.713145 1.179545 17.035743 3.181528 11.000461 19.434882 -1.673216 20.554004 1.245065 -6.343545 -3.518647 -2.437034 -1.622314 3.623253 -11.451007 -15.339735 -41.231207 -65.286822 88.167520 8.618030 7.744055 -16.216414 -7.183808 -6.815790 4.554438 -14.755340 -37.484495 47.629695 -152.590298 -59.939185 131.630030 -0.142762 0.019869 -3.815465 -0.230468 -50.269551 -3.119390 -148.294864 80.508260 -136.526697 -30.332044 -3.323466 -1.748673 -0.239037 -10.897024 2.788951 -16.706239 -51.832257 21.971583 -74.480607 66.211302 -79.028709 30.752525 8.016971 14.132065 -0.088085 -0.337293 -0.048518
-179.837155 49.207521 13.289377 175.548321 -34.177908 -5.225918 1.422325 19.824911 4.061785 0.100175 2.453599 0.429034 0.210628 4.091335 0.731018 1.203009 17.040597 3.202997 10.779941 19.436428 -1.694365 20.187310 1.247479 -6.309212 -3.577682 -2.505497 -1.645384 3.598881 -11.436382 -15.322873 -41.349620 -65.383363 88.230509 8.629455 7.697739 -16.251197 -7.358996 -6.915906 4.540279 -15.022542 -37.385810 48.062990 -152.199364 -59.144577 131.474749 -0.098236 -0.349299 -3.306027 -0.191679 -50.307815 -3.117415 -148.335018 80.519242 -136.557124 -30.294740 -3.285493 -1.755303 -0.271839 -10.907201 2.804775 -16.720195 -51.861457 21.983443 -74.469729 66.228943 -79.003502 30.802498 8.055158 14.162097 -0.129455 -0.387742 -0.066814
-179.840893 49.208498 13.297476 175.543951 -34.122068 -5.210692 1.439363 19.814199 4.070670 0.096592 2.432611 0.422425 0.209834 4.092614 0.732994 1.229770 17.068137 3.231569 10.546519 19.434366 -1.714349 19.768431 1.213513 -6.280083 -3.614373 -2.560601 -1.669138 3.566559 -11.373483 -15.288262 -41.491524 -65.492013 88.325298 8.628874 7.651314 -16.296558 -7.508286 -7.012052 4.514878 -15.307533 -37.245394 48.523529 -151.732230 -58.387543 131.283610 -0.047682 -0.750968 -2.751975 -0.121171 -50.370140 -3.160268 -148.301611 80.510427 -136.500254 -30.273129 -3.238695 -1.770705 -0.251324 -10.943977 2.817465 -16.724993 -51.918827 21.986521 -74.443219 66.230289 -78.973160 30.762992 8.021930 14.147451 -0.099780 -0.344556 -0.052830
-179.841335 49.212632 13.300709 175.548940 -34.098556 -5.212551 1.446818 19.832131 4.090839 0.107306 2.440419 0.423466 0.199875 4.069128 0.726407 1.243893 17.089590 3.260239 10.298138 19.407989 -1.742714 19.327305 1.134581 -6.265313 -3.625999 -2.595211 -1.705360 3.502765 -11.261170 -15.217498 -41.673703 -65.639414 88.471512 8.631258 7.640647 -16.294570 -7.643045 -7.110834 4.485060 -15.583278 -37.064894 48.983512 -151.192365 -57.669696 131.063560 0.005659 -1.192407 -2.185037 -0.080256 -50.401033 -3.165173 -148.303354 80.513481 -136.497439 -30.311376 -3.196951 -1.737132 -0.253189 -10.964873 2.805996 -16.744484 -51.937228 22.001779 -74.415383 66.230546 -78.947191 30.754130 8.033426 14.141783 -0.093161 -0.347651 -0.047463
-179.843614 49.216732 13.302503 175.556735 -34.077585 -5.199520 1.442645 19.849723 4.094094 0.109079 2.445659 0.423611 0.201901 4.071700 0.730215 1.242974 17.085598 3.276314 10.050880 19.354453 -1.781468 18.893968 1.008044 -6.273437 -3.627514 -2.628462 -1.746562 3.458557 -11.181343 -15.166136 -41.816251 -65.722647 88.572308 8.604469 7.579559 -16.386755 -7.771977 -7.205537 4.456223 -15.822084 -36.848913 49.422436 -150.580643 -56.983239 130.815380 0.058156 -1.667266 -1.618913 -0.027008 -50.429525 -3.187231 -148.350792 80.530486 -136.559578 -30.385655 -3.144663 -1.675222 -0.183030 -10.986915 2.768588 -16.752776 -51.953369 21.997605 -74.376233 66.232573 -78.912320 30.732245 8.048937 14.124002 -0.072797 -0.353402 -0.034485
-179.840872 49.217067 13.310203 175.551133 -34.013383 -5.208390 1.454246 19.822394 4.126595 0.109510 2.444853 0.426674 0.208241 4.103044 0.752288 1.221886 17.059498 3.266852 9.822098 19.274073 -1.830438 18.500137 0.836638 -6.308962 -3.628082 -2.666270 -1.794888 3.443029 -11.153469 -15.134134 -41.895507 -65.734245 88.607715 8.596255 7.546628 -16.425478 -7.896601 -7.293479 4.430932 -16.001790 -36.610859 49.827764 -149.908266 -56.325788 130.540787 0.104990 -2.159366 -1.049754 -0.006376 -50.498399 -3.176633 -148.316802 80.521914 -136.516742 -30.315930 -3.134279 -1.694409 -0.205231 -10.988089 2.784578 -16.815048 -51.999875 22.067544 -74.333273 66.221950 -78.878601 30.727330 8.046584 14.111544 -0.066275 -0.342427 -0.028178
-179.837346 49.220256 13.312975 175.541786 -33.978901 -5.215915 1.466516 19.826558 4.154902 0.117121 2.444170 0.433722 0.200606 4.074207 0.737003 1.205766 17.094030 3.288005 9.628474 19.174296 -1.886610 18.174503 0.635758 -6.369853 -3.651953 -2.690466 -1.854842 3.465603 -11.145873 -15.087905 -41.952186 -65.747797 88.634791 8.588811 7.525305 -16.448959 -8.009092 -7.371773 4.410793 -16.112441 -36.370102 50.197053 -149.183704 -55.709979 130.230466 0.138968 -2.656797 -0.459228 0.064756 -50.539147 -3.184484 -148.270745 80.517014 -136.445002 -30.301403 -3.096455 -1.693212 -0.228819 -11.003332 2.799187 -16.859709 -52.018567 22.122437 -74.291694 66.219078 -78.844220 30.722337 8.061013 14.100157 -0.062358 -0.347297 -0.022736
-179.836328 49.222718 13.315618 175.557193 -33.934353 -5.222475 1.443435 19.826005 4.159328 0.122868 2.442104 0.440679 0.196386 4.076352 0.738995 1.173423 17.098229 3.283927 9.480862 19.067956 -1.945755 17.934275 0.429602 -6.449924 -3.667715 -2.710437 -1.899587 3.493610 -11.126878 -15.041183 -41.995274 -65.793285 88.674666 8.534899 7.476417 -16.541424 -8.106385 -7.438647 4.395099 -16.153503 -36.139680 50.536949 -148.415739 -55.145615 129.876078 0.160547 -3.146137 0.170435 0.092798 -50.587060 -3.204999 -148.263205 80.515321 -136.435829 -30.268600 -3.045038 -1.686495 -0.236450 -11.037365 2.802434 -16.897533 -52.056602 22.146169 -74.259907 66.217467 -78.813586 30.720841 8.077379 14.092928 -0.059883 -0.352592 -0.018541
-179.835852 49.224006 13.319657 175.579538 -33.872245 -5.232697 1.404021 19.810730 4.157052 0.106463 2.485952 0.449358 0.185126 4.077402 0.740055 1.159873 17.056016 3.267973 9.386159 18.964425 -2.004675 17.790311 0.235666 -6.544424 -3.675763 -2.728077 -1.930625 3.522117 -11.127246 -15.013759 -42.038664 -65.840197 88.643129 8.489905 7.390752 -16.587502 -8.190314 -7.499246 4.381210 -16.121169 -35.923317 50.851110 -147.599317 -54.630241 129.460770 0.174355 -3.619475 0.854686 0.114308 -50.653251 -3.225079 -148.230348 80.504696 -136.403726 -30.248639 -2.995235 -1.664822 -0.238519 -11.070293 2.797802 -16.972368 -52.101196 22.198891 -74.216352 66.214166 -78.786961 30.705186 8.071625 14.078039 -0.049179 -0.334510 -0.013133
-179.834610 49.227776 13.320094 175.591749 -33.831456 -5.244749 1.370411 19.815653 4.158041 0.101946 2.485608 0.449003 0.196928 4.056624 0.738414 1.144326 17.056635 3.265229 9.316870 18.882749 -2.048643 17.747830 0.058960 -6.651004 -3.719078 -2.722078 -1.942579 3.520567 -11.168950 -15.018921 -42.048417 -65.895422 88.653841 8.482282 7.343543 -16.588681 -8.300365 -7.542848 4.376891 -16.010152 -35.718730 51.133588 -146.701711 -54.152756 128.945511 0.176331 -4.073228 1.617406 0.115934 -50.697606 -3.220436 -148.154325 80.497474 -136.349183 -30.227407 -2.923023 -1.636714 -0.247339 -11.118421 2.793067 -17.039878 -52.123317 22.250471 -74.186469 66.213309 -78.759352 30.676698 8.082724 14.038694 -0.023174 -0.330158 0.002483
